<?xml version="1.0" standalone="no"?>
<!DOCTYPE svg PUBLIC "-//W3C//DTD SVG 20010904//EN"
 "http://www.w3.org/TR/2001/REC-SVG-20010904/DTD/svg10.dtd">
<svg version="1.0" xmlns="http://www.w3.org/2000/svg"
 width="270.000000pt" height="270.000000pt" viewBox="0 0 270.000000 270.000000"
 preserveAspectRatio="xMidYMid meet">
<metadata>
Created by potrace 1.14, written by Peter Selinger 2001-2017
</metadata>
<g transform="translate(0.000000,270.000000) scale(0.100000,-0.100000)"
fill="#000000" stroke="none">
<path d="M0 2653 l0 -47 45 44 c25 24 45 45 45 47 0 2 -20 3 -45 3 l-45 0 0
-47z"/>
<path d="M70 2613 c-70 -94 -88 -124 -45 -80 31 32 125 154 125 162 0 18 -23
-5 -80 -82z"/>
<path d="M896 2691 c5 -5 45 -39 89 -76 44 -37 92 -82 107 -100 l27 -32 -147
-6 c-81 -4 -264 -12 -407 -18 -283 -12 -318 -19 -336 -66 -18 -45 -24 -851 -9
-1158 7 -143 14 -307 16 -364 2 -58 7 -108 11 -112 29 -25 96 -29 484 -29 357
0 410 -2 423 -16 19 -19 21 -48 3 -61 -30 -24 -229 -102 -297 -117 -41 -9 -95
-24 -120 -33 -25 -9 -75 -19 -113 -21 -63 -3 -68 -6 -82 -33 -9 -16 -20 -29
-26 -29 -23 0 -109 -83 -154 -149 -40 -59 -45 -72 -36 -90 10 -18 7 -23 -28
-45 -53 -34 -57 -43 -30 -72 20 -21 18 -27 -7 -23 -10 1 -23 -24 -18 -33 7
-10 2304 -11 2304 0 0 4 -14 27 -30 51 -17 24 -30 52 -30 62 0 10 -9 26 -19
36 -11 10 -24 43 -30 76 -14 79 -39 121 -126 215 -50 55 -91 72 -169 72 -72 0
-239 33 -311 62 -27 11 -78 30 -111 42 -71 25 -94 41 -94 66 0 15 21 17 223
24 358 10 531 17 545 21 6 3 12 20 12 40 0 32 2 35 29 35 17 0 33 5 37 11 4 7
8 131 9 278 1 146 6 460 11 696 12 596 13 579 -10 604 -11 12 -26 19 -35 16
-9 -2 -52 0 -96 6 -177 22 -248 29 -425 40 -102 6 -186 12 -188 14 -3 3 184
188 213 209 16 13 17 15 4 16 -9 0 -67 -49 -129 -110 -103 -101 -130 -122
-130 -103 0 4 48 54 108 110 l107 102 -40 1 c-37 0 -45 -6 -115 -83 -41 -45
-87 -92 -101 -104 l-26 -22 -52 19 c-66 26 -168 26 -241 1 l-54 -19 -19 21
c-10 12 -28 40 -39 62 -32 63 -103 125 -144 125 l-33 0 43 -44 c24 -25 61 -74
83 -109 l41 -65 -31 -6 c-28 -6 -37 -1 -92 56 -83 86 -179 168 -195 168 -9 0
-10 -3 -4 -9z"/>
</g>
</svg>
